<svg xmlns="http://www.w3.org/2000/svg" viewBox="0 0 80.22 28.95"><defs><style>.cls-1{fill:#231f20;}</style></defs><title>visage</title><g id="Layer_2" data-name="Layer 2"><g id="Layer_1-2" data-name="Layer 1"><path class="cls-1" d="M7.26,22.21c-.13,0-.23-.13-.33-.33L0,6.8H4.09v.1a.34.34,0,0,0,0,.1,3.67,3.67,0,0,0-1.06.13c-.4.1-.89.4-.89.92a1.2,1.2,0,0,0,.13.56L7.56,19.37l4.88-9.44a.73.73,0,0,1,.66-.42.28.28,0,0,1,.3.23L7.62,21.88C7.52,22.11,7.39,22.21,7.26,22.21Z"/><path class="cls-1" d="M17.52,10c0-2.21-.29-2.71-2.64-2.71-.23,0-.36-.13-.36-.26s.13-.26.36-.26h4.66V21.49c0,.49-.5.76-1,.76s-1-.27-1-.76Zm-2-8.88a1.3,1.3,0,0,1,2.57,0,1.14,1.14,0,0,1-1.25,1.09A1.2,1.2,0,0,1,15.51,1.12Z"/><path class="cls-1" d="M25.44,22.77c-.1,0-.23-.1-.36-.13s-.26-.2-.26-.43S25,22,25.15,22a2.64,2.64,0,0,1,.52.13,4,4,0,0,0,.56.2,4.37,4.37,0,0,0,1.66.2c2.44,0,4-1.19,4-3.53,0-1.92-1.56-2.91-2.81-3.6-.63-.36-1.32-.66-2-1a15,15,0,0,1-1.85-1.09A4.06,4.06,0,0,1,23.4,9.84c0-2.61,2-4.1,5.44-4.1a2.81,2.81,0,0,1,1.55.4c.33.16.5.36.5.53s-.13.23-.56.23c-.17-.07-.37-.2-.66-.3a3.34,3.34,0,0,0-1.26-.23c-2,0-3.46,1.09-3.46,2.87s1.71,2.81,2.9,3.43c.63.33,1.36.66,2,1,2,1.05,3.73,2.24,3.73,4.75,0,3.33-2.77,4.69-6.11,4.69A4.28,4.28,0,0,1,25.44,22.77Z"/><path class="cls-1" d="M45.15,20.27c-1.49,1.68-2.81,2.31-5.52,2.31a3.58,3.58,0,0,1-3.86-3.67c0-4.72,6.73-5.18,9.38-5.25V11.49c0-2.45,0-4.16-3.44-4.16-1.55,0-2.27.62-2.27,1.85,0,.19-.24.29-.47.29s-.43-.1-.43-.29c0-.76.23-2.68,3.27-2.68,4.36,0,4.52,2.05,4.52,5.25V22.61c0,.2-.29.26-.59.26s-.59-.06-.59-.26Zm-2.48-5.65a7.57,7.57,0,0,0-1.65.2c-1.82.46-3.93,1.58-3.93,3.63,0,1.49,1.78,3.3,4,3.3a3.79,3.79,0,0,0,4.06-3.86V15.71C45.15,15.05,44.06,14.62,42.67,14.62Z"/><path class="cls-1" d="M56.89,28.91,56,28.85a.25.25,0,0,1-.19-.23.16.16,0,0,1,.16-.17h2c4,0,4.1-3.76,4.1-6.07v-3h-.76A4.57,4.57,0,0,1,57.19,22c-4,0-6.07-3.17-6.07-7.63s1.75-7.82,6.2-7.82a4.51,4.51,0,0,1,4,2.58h.76V6.73c0-.29.46-.46.92-.46s.93.17.93.46V22.84c0,3.4-1,6.11-6.47,6.11A1.75,1.75,0,0,1,56.89,28.91Zm-4.62-16.1.23,2.54c.2,2.14.6,6.1,5.15,6.1a5.55,5.55,0,0,0,.69,0c3.54-.3,4.3-3.73,4.3-6.37,0-.49,0-1-.07-1.42-.26-2.51-1.35-7.16-5.84-7C53.43,6.73,52.27,10.53,52.27,12.81Z"/><path class="cls-1" d="M70.26,13.37c-.1.19-.27.36-.47.69a5.31,5.31,0,0,0-.36,1.88c0,3.24,3.4,5.18,6.4,5.18a1.63,1.63,0,0,1,.4.14c.26.06.36.19.36.56s-.46.43-.82.43c-5.32,0-7.72-3.5-7.72-8.52,0-4.62,1.68-7.56,6.63-7.56,3.53,0,5.54,2.25,5.54,5.71v.4H70.45A3.43,3.43,0,0,1,70.26,13.37ZM69,11.58H79.83C79.79,7.69,77.29,7,74.25,7S69.43,8.19,69,11.58Z"/></g></g></svg>